<svg width="44" height="17" viewBox="0 0 44 17" fill="none" xmlns="http://www.w3.org/2000/svg">
<path d="M0.841309 6.18361V8.48604L7.05249 7.80281V5.31079L0.841309 6.18361ZM2.8234 8.62609V16.5158H5.09738V8.39369L2.8234 8.62609ZM7.89134 5.19293V16.5158H10.2875V4.85604L7.89134 5.19293ZM10.7339 4.79325V7.39798L14.1939 7.01731V4.30711L10.7339 4.79325ZM10.7339 9.33666V11.9889L13.0051 11.865V9.14118L10.7339 9.33666ZM10.7339 13.9006V16.5158H14.1939V13.7962L10.7339 13.9006ZM23.1419 3.04552V16.5158H26.283V2.60402L23.1419 3.04552ZM26.8696 2.52148V5.61996L31.4473 5.11665V1.878L26.8696 2.52148ZM26.8696 7.95023V11.1061L29.87 10.9423V7.6933L26.8696 7.95023ZM26.8696 13.4128V16.5158H31.4473V13.2746L26.8696 13.4128ZM15.1094 4.17822V16.5158H17.8388V3.79448L15.1094 4.17822ZM18.3483 13.6709V16.5157H22.3103V13.5513L18.3483 13.6709ZM41.7101 1.72568C40.7173 0.787735 39.2617 0.403016 37.6696 0.631738V4.06833C38.3143 4.03252 38.8368 4.27179 39.0695 4.75352C39.4371 5.51302 39.0579 6.65258 38.1633 7.70838C36.7827 9.33764 33.1112 12.6724 33.1112 12.6724L38.3818 12.4992C41.6021 9.35297 42.7586 7.44324 42.9661 5.05975C43.0752 3.79877 42.6175 2.58378 41.7101 1.72568ZM43.1518 16.5158V12.9199L32.4616 13.242L43.1518 16.5158ZM32.4616 13.2419L32.4627 16.5157H43.1518L32.4616 13.2419ZM37.055 0.708878C33.9495 1.37027 32.4244 3.65504 32.6004 7.38314L35.9117 7.0893C35.7608 4.9831 36.4051 4.48346 37.0566 4.20875L37.055 0.708878Z" fill="#E5E5E5"/>
</svg>
