<svg width="31" height="25" viewBox="0 0 31 25" fill="none" xmlns="http://www.w3.org/2000/svg">
<g clip-path="url(#clip0)">
<path d="M30.6751 15.6757V15.3001H30.5784L30.4664 15.5581L30.3551 15.3001H30.2577V15.6757H30.3265V15.3924L30.4311 15.6369H30.5023L30.6069 15.3918V15.6757H30.6751ZM30.0612 15.6757V15.3641H30.1853V15.3007H29.869V15.3641H29.9931V15.6757H30.0612Z" fill="#F79410"/>
<path d="M19.6756 17.2913H11.303V2.06384H19.6756V17.2913Z" fill="#FF5F00"/>
<path d="M11.8392 9.6764C11.8392 6.58744 13.2684 3.83588 15.4939 2.06267C13.8664 0.766007 11.8125 -0.00792464 9.58024 -0.00792464C4.2957 -0.00792464 0.0119629 4.32782 0.0119629 9.6764C0.0119629 15.025 4.2957 19.3607 9.58024 19.3607C11.8125 19.3607 13.8664 18.5868 15.4939 17.2901C13.2684 15.5169 11.8392 12.7654 11.8392 9.6764Z" fill="#EB001B"/>
<path d="M30.9673 9.6764C30.9673 15.025 26.6835 19.3607 21.399 19.3607C19.1668 19.3607 17.1128 18.5868 15.4847 17.2901C17.7109 15.5169 19.14 12.7654 19.14 9.6764C19.14 6.58744 17.7109 3.83588 15.4847 2.06267C17.1128 0.766007 19.1668 -0.00792464 21.399 -0.00792464C26.6835 -0.00792464 30.9673 4.32782 30.9673 9.6764Z" fill="#F79E1B"/>
</g>
<defs>
<clipPath id="clip0">
<rect width="30.9647" height="24.3765" fill="white"/>
</clipPath>
</defs>
</svg>
