<svg width="19" height="19" viewBox="0 0 19 19" fill="none" xmlns="http://www.w3.org/2000/svg">
<path d="M7.50862 7.53892C6.87063 7.53892 6.35253 7.0352 6.35253 6.41476C6.35253 5.79293 6.87063 5.28921 7.50862 5.28921C8.1466 5.28921 8.66327 5.79293 8.66327 6.41476C8.66327 7.0352 8.1466 7.53892 7.50862 7.53892ZM9.28057 0.118652C4.17452 0.118652 0.0375977 4.14699 0.0375977 9.11746C0.0375977 13.4307 3.15546 17.0352 7.31522 17.9127V9.83725L7.31579 9.8367C7.3251 9.44693 7.64406 9.13288 8.04084 9.11829V9.11774H8.42549H9.20834C9.26258 9.11774 9.30683 9.07605 9.30968 9.02394L9.31025 0.120264L9.28057 0.118652ZM15.65 14.0265C15.0127 14.0265 14.4946 13.5228 14.4946 12.901C14.4946 12.2812 15.0127 11.7775 15.65 11.7775C16.2873 11.7775 16.8054 12.2812 16.8054 12.901C16.8054 13.5228 16.2873 14.0265 15.65 14.0265ZM12.9418 14.0265C12.3045 14.0265 11.7871 13.5228 11.7871 12.901C11.7871 12.2812 12.3045 11.7775 12.9418 11.7775C13.5798 11.7775 14.0972 12.2812 14.0972 12.901C14.0972 13.5228 13.5798 14.0265 12.9418 14.0265ZM10.2321 14.0265C9.59485 14.0265 9.07604 13.5228 9.07604 12.901C9.07604 12.2812 9.59485 11.7775 10.2321 11.7775C10.8708 11.7775 11.3882 12.2812 11.3882 12.901C11.3882 13.5228 10.8708 14.0265 10.2321 14.0265ZM10.4212 0.186474V9.11719V9.46458V9.47087L10.419 9.47309C10.4155 9.87467 10.0793 10.1991 9.66536 10.1991H9.30997H8.52783C8.47073 10.1991 8.42506 10.2436 8.42506 10.2985V18.0786C8.70695 18.1037 8.99097 18.1176 9.27999 18.1176C14.3853 18.1176 18.523 14.0878 18.523 9.11736C18.523 4.52416 14.9876 0.734129 10.4211 0.186641" fill="#00985F"/>
</svg>
