<?xml version="1.0" encoding="utf-8"?>
<svg width="147" height="28" viewBox="0 0 147 28" fill="none" xmlns="http://www.w3.org/2000/svg">
  <path d="M 37.741 11.581 C 36.947 11.581 36.321 12.263 36.321 13.112 C 36.321 13.961 36.961 14.643 37.741 14.643 C 38.534 14.643 39.161 13.961 39.161 13.112 C 39.161 12.263 38.52 11.581 37.741 11.581 Z M 32.66 11.581 C 31.867 11.581 31.24 12.263 31.24 13.112 C 31.24 13.961 31.881 14.643 32.66 14.643 C 33.454 14.643 34.08 13.961 34.08 13.112 C 34.094 12.263 33.454 11.581 32.66 11.581 Z" fill="white"/>
  <path d="M 44.506 0 L 25.854 0 C 24.281 0 23 1.281 23 2.854 L 23 21.506 C 23 23.079 24.281 24.359 25.854 24.359 L 41.638 24.359 L 40.901 21.812 L 42.682 23.454 L 44.367 24.999 L 47.373 27.602 L 47.373 2.854 C 47.359 1.281 46.079 0 44.506 0 Z M 39.133 18.026 C 39.133 18.026 38.632 17.427 38.214 16.912 C 40.038 16.397 40.734 15.27 40.734 15.27 C 40.163 15.646 39.62 15.91 39.133 16.091 C 38.437 16.383 37.769 16.564 37.114 16.69 C 35.778 16.94 34.553 16.871 33.509 16.676 C 32.716 16.523 32.034 16.314 31.463 16.077 C 31.143 15.952 30.795 15.799 30.447 15.604 C 30.405 15.576 30.363 15.562 30.322 15.534 C 30.294 15.52 30.28 15.506 30.266 15.506 C 30.015 15.367 29.876 15.27 29.876 15.27 C 29.876 15.27 30.544 16.369 32.312 16.898 C 31.895 17.427 31.38 18.04 31.38 18.04 C 28.303 17.942 27.134 15.938 27.134 15.938 C 27.134 11.498 29.139 7.892 29.139 7.892 C 31.143 6.403 33.036 6.445 33.036 6.445 L 33.175 6.612 C 30.67 7.322 29.528 8.421 29.528 8.421 C 29.528 8.421 29.835 8.254 30.35 8.032 C 31.839 7.377 33.022 7.21 33.509 7.155 C 33.593 7.141 33.662 7.127 33.746 7.127 C 34.595 7.015 35.555 6.988 36.558 7.099 C 37.88 7.252 39.3 7.642 40.747 8.421 C 40.747 8.421 39.648 7.377 37.281 6.667 L 37.476 6.445 C 37.476 6.445 39.383 6.403 41.374 7.892 C 41.374 7.892 43.378 11.498 43.378 15.938 C 43.378 15.924 42.209 17.928 39.133 18.026 Z M 60.151 5.958 L 55.53 5.958 L 55.53 11.15 L 58.606 13.92 L 58.606 8.881 L 60.249 8.881 C 61.293 8.881 61.808 9.382 61.808 10.189 L 61.808 14.045 C 61.808 14.852 61.32 15.395 60.249 15.395 L 55.516 15.395 L 55.516 18.332 L 60.137 18.332 C 62.615 18.346 64.94 17.107 64.94 14.268 L 64.94 10.12 C 64.953 7.224 62.629 5.958 60.151 5.958 Z M 84.371 14.268 L 84.371 10.008 C 84.371 8.477 87.127 8.129 87.962 9.66 L 90.51 8.63 C 89.507 6.431 87.684 5.791 86.167 5.791 C 83.689 5.791 81.239 7.224 81.239 10.008 L 81.239 14.268 C 81.239 17.079 83.689 18.485 86.111 18.485 C 87.67 18.485 89.535 17.72 90.565 15.715 L 87.837 14.462 C 87.169 16.174 84.371 15.757 84.371 14.268 Z M 75.95 10.593 C 74.989 10.384 74.349 10.036 74.307 9.437 C 74.363 8.004 76.576 7.948 77.871 9.326 L 79.917 7.753 C 78.636 6.194 77.189 5.777 75.699 5.777 C 73.43 5.777 71.231 7.057 71.231 9.479 C 71.231 11.832 73.041 13.098 75.031 13.405 C 76.047 13.544 77.175 13.947 77.147 14.643 C 77.063 15.966 74.335 15.896 73.096 14.393 L 71.12 16.244 C 72.275 17.734 73.848 18.485 75.324 18.485 C 77.592 18.485 80.112 17.177 80.209 14.783 C 80.348 11.762 78.149 10.996 75.95 10.593 Z M 66.624 18.318 L 69.742 18.318 L 69.742 5.958 L 66.624 5.958 L 66.624 18.318 Z M 119.198 5.958 L 114.576 5.958 L 114.576 11.15 L 117.653 13.92 L 117.653 8.881 L 119.295 8.881 C 120.339 8.881 120.854 9.382 120.854 10.189 L 120.854 14.045 C 120.854 14.852 120.367 15.395 119.295 15.395 L 114.563 15.395 L 114.563 18.332 L 119.198 18.332 C 121.675 18.346 124 17.107 124 14.268 L 124 10.12 C 124 7.224 121.675 5.958 119.198 5.958 Z M 96.523 5.791 C 93.962 5.791 91.414 7.182 91.414 10.036 L 91.414 14.254 C 91.414 17.079 93.976 18.499 96.551 18.499 C 99.112 18.499 101.659 17.079 101.659 14.254 L 101.659 10.036 C 101.659 7.196 99.084 5.791 96.523 5.791 Z M 98.527 14.254 C 98.527 15.144 97.525 15.604 96.537 15.604 C 95.535 15.604 94.532 15.172 94.532 14.254 L 94.532 10.036 C 94.532 9.131 95.507 8.644 96.481 8.644 C 97.497 8.644 98.527 9.076 98.527 10.036 L 98.527 14.254 Z M 112.85 10.036 C 112.781 7.141 110.804 5.971 108.257 5.971 L 103.316 5.971 L 103.316 18.332 L 106.475 18.332 L 106.475 14.407 L 107.032 14.407 L 109.9 18.332 L 113.797 18.332 L 110.428 14.087 C 111.918 13.613 112.85 12.319 112.85 10.036 Z M 108.313 11.706 L 106.475 11.706 L 106.475 8.881 L 108.313 8.881 C 110.275 8.881 110.275 11.706 108.313 11.706 Z" fill="white"/>
</svg>