<svg width="140" height="27" viewBox="0 0 140 27" fill="none" xmlns="http://www.w3.org/2000/svg">
<g clip-path="url(#clip0)">
<path d="M9.35345 4.11488C9.85632 2.91041 10.6609 1.9067 11.7672 1.2041C12.8736 0.501493 14.0805 0.100006 15.3879 0.100006H40.0287L30.6753 22.8844C30.1724 24.0889 29.3678 25.0926 28.2615 25.7952C27.1552 26.4978 25.9483 26.8993 24.6408 26.8993H0L9.35345 4.11488ZM11.3649 19.271H22.931C23.2328 19.271 23.5345 19.1706 23.8362 18.9699C24.1379 18.7691 24.3391 18.5684 24.4397 18.2673L28.7644 7.82863H16.9971C16.2931 7.82863 15.7902 8.23012 15.5891 8.83235L11.3649 19.271Z" fill="white"/>
<path d="M75.7328 1.90706C75.9339 1.30483 76.3362 0.903346 76.8391 0.501859C77.342 0.200743 77.9454 0 78.5489 0H84.7845L80.9627 9.33457H92.227C92.6293 9.33457 92.9311 9.2342 93.2328 9.03346C93.5345 8.83271 93.7357 8.5316 93.9368 8.23048L96.5518 1.80669C96.7529 1.20446 97.1552 0.802974 97.6581 0.501859C98.1609 0.200743 98.7644 0 99.3678 0H105.503L100.374 12.5465C99.3678 14.9554 96.9541 16.5613 94.3391 16.5613H89.0086L85.5891 24.9926C85.388 25.4944 84.9857 25.9963 84.4828 26.2974C83.9799 26.5985 83.3765 26.7993 82.8736 26.7993H76.5374L80.7615 16.5613H69.6983L75.7328 1.90706Z" fill="white"/>
<path d="M99.569 27.0004L114.655 13.0487L106.207 0.201141H113.147C115.359 0.201141 117.471 1.30523 118.678 3.21229L121.293 7.22716L128.736 0.201141H140.101L125.517 13.5506L134.368 27.0004H123.908L119.08 19.5729L111.034 27.0004H99.569Z" fill="white"/>
<path d="M43.8506 0.100586H53.2041L58.2328 14.6545L63.0604 2.71025C63.6638 1.1043 65.1724 0.100586 66.8822 0.100586H73.4196L62.5575 27.0002H53.3046L48.2759 12.4463L43.9512 23.2865C43.046 25.595 40.8334 27.0002 38.319 27.0002H33.0891L43.8506 0.100586Z" fill="white"/>
</g>
<defs>
<clipPath id="clip0">
<rect width="140" height="27" fill="white"/>
</clipPath>
</defs>
</svg>
