<svg width="41" height="27" viewBox="0 0 41 27" fill="none" xmlns="http://www.w3.org/2000/svg">
<path d="M9.35345 4.01487C9.85632 2.81041 10.6609 1.80669 11.7672 1.10409C12.8736 0.401487 14.0805 0 15.3879 0H40.0287L30.6753 22.7844C30.1724 23.9888 29.3678 24.9926 28.2615 25.6952C27.1552 26.3978 25.9483 26.7993 24.6408 26.7993H0L9.35345 4.01487ZM11.3649 19.171H22.931C23.2328 19.171 23.5345 19.0706 23.8362 18.8699C24.1379 18.6691 24.3391 18.4684 24.4397 18.1673L28.7644 7.72862H16.9971C16.2931 7.72862 15.7902 8.13011 15.5891 8.73234L11.3649 19.171Z" fill="white"/>
</svg>
